<?xml version="1.0" standalone="no"?>
<!DOCTYPE svg PUBLIC "-//W3C//DTD SVG 20010904//EN"
 "http://www.w3.org/TR/2001/REC-SVG-20010904/DTD/svg10.dtd">
<svg version="1.0" xmlns="http://www.w3.org/2000/svg"
 width="200.000000pt" height="200.000000pt" viewBox="0 0 200.000000 200.000000"
 preserveAspectRatio="xMidYMid meet">
<metadata>
Created by potrace 1.14, written by Peter Selinger 2001-2017
</metadata>
<g transform="translate(0.000000,200.000000) scale(0.100000,-0.100000)"
fill="#000000" stroke="none">
<path d="M617 1516 c-133 -48 -220 -226 -172 -351 20 -55 57 -100 96 -121 16
-8 29 -19 29 -25 0 -11 -53 23 -82 52 -10 10 -28 35 -40 56 -29 50 -31 166 -5
233 25 64 4 114 -53 125 -41 8 -91 -33 -82 -67 1 -5 -3 -8 -8 -8 -6 0 -10 5
-10 10 0 22 -41 50 -73 50 -66 0 -111 -91 -67 -137 26 -28 34 -29 60 -3 17 17
19 24 9 43 -11 20 -11 21 4 9 12 -10 15 -24 11 -55 -4 -34 1 -56 30 -114 19
-40 38 -73 40 -73 3 0 3 15 1 33 -5 28 -4 28 8 -8 17 -51 44 -102 57 -110 6
-4 4 10 -6 32 -31 71 -44 126 -50 207 -3 44 -8 85 -11 91 -4 5 3 2 14 -7 37
-33 94 -12 79 29 -6 14 -4 15 5 6 9 -9 7 -22 -6 -57 -21 -56 -15 -145 14 -211
26 -59 88 -125 139 -147 52 -23 56 -34 5 -13 -109 46 -176 154 -177 287 -1 75
-1 76 -28 80 -19 3 -28 0 -28 -9 0 -7 3 -13 8 -13 4 0 7 -35 8 -78 0 -65 5
-89 31 -143 56 -120 134 -172 258 -172 70 0 116 6 135 18 5 3 10 2 10 -4 0 -6
-11 -13 -25 -17 -14 -3 -25 -10 -25 -15 0 -16 25 -20 53 -10 16 6 27 7 27 1 0
-5 -19 -13 -42 -17 -28 -6 -44 -15 -46 -26 -5 -24 44 -23 86 3 18 11 46 20 63
20 39 0 89 48 89 84 0 14 5 26 10 26 6 0 8 -11 6 -25 -3 -13 0 -27 5 -30 5 -4
5 -13 -1 -25 -21 -40 1 -80 44 -80 44 0 76 63 40 77 -18 7 -47 -23 -38 -38 3
-5 -2 -6 -10 -3 -9 3 -16 12 -16 18 0 16 29 54 30 39 0 -9 8 -9 28 -2 16 5
141 11 278 13 137 2 252 4 257 5 4 1 7 12 7 26 0 77 77 129 147 100 37 -16 62
-50 65 -88 4 -41 58 -32 81 13 14 27 14 107 0 120 -14 14 -102 22 -266 25
l-159 4 -64 42 c-35 23 -64 45 -64 48 0 15 -72 29 -145 29 -92 0 -152 -13
-325 -73 -139 -47 -186 -56 -177 -31 6 14 -29 54 -38 45 -2 -3 -5 -19 -7 -36
-1 -18 -6 -29 -10 -27 -25 16 25 117 60 122 12 2 22 -1 22 -6 0 -5 -8 -9 -17
-8 -12 1 -19 -7 -21 -25 -4 -32 35 -53 72 -40 63 24 39 131 -30 131 -73 0
-129 -65 -122 -141 2 -21 0 -39 -4 -39 -5 0 -8 10 -9 23 -4 72 17 119 64 147
l32 20 -34 0 c-42 0 -100 -54 -102 -96 -2 -25 -2 -26 -6 -6 -5 28 32 86 65
101 13 6 39 11 59 11 32 0 34 2 22 18 -13 16 -13 16 7 0 31 -27 76 -23 107 10
49 51 28 116 -47 147 -43 18 -79 18 -129 1z m66 -62 c26 -9 47 -21 47 -26 0
-6 -6 -5 -15 2 -12 10 -18 10 -31 0 -12 -11 -15 -11 -12 1 3 16 -32 24 -68 15
-39 -10 -90 -63 -114 -118 -33 -78 -26 -162 20 -219 18 -23 27 -40 19 -37 -8
2 -27 22 -42 44 -59 84 -37 223 48 301 25 23 55 44 68 46 12 2 25 5 28 6 3 0
26 -6 52 -15z m-419 -43 c17 -18 38 -101 26 -101 -4 0 -10 19 -13 42 -8 63
-68 95 -86 46 -4 -13 -10 -17 -14 -11 -10 16 2 41 21 45 25 6 49 -2 66 -21z
m406 -13 c0 -8 -17 -13 -46 -14 -82 -3 -131 -74 -122 -180 4 -52 31 -100 49
-89 4 3 11 0 15 -6 4 -8 3 -9 -4 -5 -7 4 -12 2 -12 -3 0 -6 4 -11 9 -11 6 0 9
-9 8 -20 -1 -19 -22 -23 -22 -4 -1 5 -13 28 -28 51 -37 58 -40 130 -9 195 26
53 56 76 115 88 23 4 43 8 45 9 1 1 2 -5 2 -11z m-368 -150 c2 -21 0 -38 -4
-38 -4 0 -8 21 -7 48 1 52 6 48 11 -10z m1036 -54 c34 -25 62 -48 62 -50 0 -2
-74 -4 -164 -4 l-164 0 -6 24 c-3 13 -8 31 -12 39 -7 18 62 34 157 36 63 1 68
-1 127 -45z m-794 -34 c4 -25 3 -31 -4 -20 -5 8 -10 26 -10 39 0 32 6 24 14
-19z m459 18 c7 -25 3 -33 -12 -23 -13 8 -15 45 -2 45 5 0 11 -10 14 -22z
m-40 -9 c3 -13 1 -19 -6 -16 -15 5 -22 37 -9 37 5 0 12 -9 15 -21z m-43 -5 c0
-8 -5 -12 -10 -9 -6 4 -8 11 -5 16 9 14 15 11 15 -7z m-6 -96 c23 -12 36 -27
36 -43 0 -5 -7 0 -15 12 -18 25 -60 41 -95 37 -30 -5 -70 -47 -70 -75 0 -11
-4 -18 -10 -14 -20 12 26 80 65 95 23 9 59 4 89 -12z m276 2 c0 -5 -5 -10 -11
-10 -5 0 -7 5 -4 10 3 6 8 10 11 10 2 0 4 -4 4 -10z m35 0 c-3 -5 -12 -10 -18
-10 -7 0 -6 4 3 10 19 12 23 12 15 0z m-148 -7 c-65 -3 -86 -7 -80 -16 4 -7 0
-7 -10 2 -9 7 -17 15 -17 17 0 2 44 3 98 2 l97 -2 -88 -3z m-190 -59 c2 -6 -8
-16 -22 -22 -36 -16 -42 -15 -19 4 16 13 16 15 2 10 -18 -5 -24 5 -11 18 10
10 46 3 50 -10z m123 7 c0 -6 15 -12 33 -14 l32 -4 -36 -1 c-25 -1 -39 3 -43
13 -3 8 -1 15 4 15 6 0 10 -4 10 -9z m140 -21 c0 -5 -2 -10 -4 -10 -3 0 -8 5
-11 10 -3 6 -1 10 4 10 6 0 11 -4 11 -10z m43 3 c-7 -2 -19 -2 -25 0 -7 3 -2
5 12 5 14 0 19 -2 13 -5z m60 0 c-7 -2 -21 -2 -30 0 -10 3 -4 5 12 5 17 0 24
-2 18 -5z m44 1 c-3 -3 -12 -4 -19 -1 -8 3 -5 6 6 6 11 1 17 -2 13 -5z"/>
<path d="M190 1284 c0 -35 71 -166 116 -214 45 -48 106 -95 78 -59 -72 89
-116 158 -139 218 -26 65 -55 94 -55 55z"/>
<path d="M1657 1064 c-33 -18 -47 -43 -47 -87 0 -50 49 -91 99 -83 64 10 95
67 71 130 -16 43 -78 63 -123 40z m73 -63 c15 -29 2 -51 -30 -51 -20 0 -31 6
-35 20 -14 43 44 69 65 31z"/>
<path d="M1516 773 c-3 -16 -8 -44 -11 -63 -3 -19 -8 -42 -10 -50 -2 -8 -6
-37 -10 -64 -3 -27 -8 -52 -10 -56 -2 -4 -7 -29 -11 -56 -3 -27 -8 -52 -11
-56 -2 -5 16 -8 41 -8 25 0 46 3 47 8 7 75 37 97 54 40 12 -40 49 -60 91 -49
24 6 30 13 32 40 2 19 -1 31 -6 27 -5 -3 -17 1 -27 8 -18 13 -18 15 8 46 69
81 7 164 -86 115 l-28 -14 6 32 c3 18 9 53 14 80 l8 47 -42 0 c-39 0 -44 -3
-49 -27z m118 -182 c9 -14 -18 -40 -47 -45 -25 -4 -27 -3 -21 17 4 12 12 25
18 29 15 10 44 10 50 -1z"/>
<path d="M568 779 c-9 -6 -21 -53 -34 -139 -3 -19 -12 -70 -20 -114 -20 -110
-21 -106 30 -106 l44 0 7 43 c12 81 27 149 31 144 3 -2 7 -16 10 -31 11 -60
22 -75 55 -74 27 1 37 9 71 62 23 37 37 51 33 36 -3 -14 -12 -60 -19 -103
l-13 -78 46 3 c51 3 45 -7 66 118 3 19 14 81 24 138 20 109 21 104 -29 104
-11 0 -27 0 -35 -1 -8 0 -39 -37 -67 -81 -29 -44 -56 -80 -59 -80 -3 0 -16 36
-29 79 l-23 79 -39 4 c-21 2 -44 1 -50 -3z"/>
<path d="M1000 652 c-41 -20 -66 -66 -74 -135 -4 -39 -1 -51 18 -74 20 -23 31
-27 79 -27 31 0 68 7 83 14 27 15 58 63 47 74 -10 9 -83 7 -83 -3 0 -16 -28
-20 -46 -6 -14 10 -16 16 -6 27 8 11 31 14 82 12 76 -3 74 -4 73 61 -1 40 -3
45 -33 60 -39 20 -97 19 -140 -3z m85 -72 c0 -10 -9 -15 -25 -14 -41 2 -43 3
-30 19 16 19 55 16 55 -5z"/>
<path d="M1240 651 c-4 -9 -10 -34 -13 -56 -4 -22 -11 -64 -17 -94 -15 -80
-15 -81 29 -81 42 0 44 2 55 70 12 69 15 82 26 95 16 19 43 7 37 -16 -4 -16 1
-19 34 -19 33 0 41 4 49 24 26 70 -37 123 -98 80 -12 -8 -22 -11 -22 -6 0 18
-71 20 -80 3z"/>
</g>
</svg>
